<?xml version="1.0" encoding="UTF-8"?>
<svg id="Layer_1" xmlns="http://www.w3.org/2000/svg" version="1.1" viewBox="0 0 160 160">
  <!-- Generator: Adobe Illustrator 29.7.1, SVG Export Plug-In . SVG Version: 2.1.1 Build 8)  -->
  <defs>
    <style>
      .st0 {
        stroke-width: .2px;
      }

      .st0, .st1 {
        fill: none;
        stroke: #000;
        stroke-miterlimit: 10;
      }

      .st2 {
        display: none;
      }

      .st1 {
        stroke-width: 3px;
      }
    </style>
  </defs>
  <g class="st2">
    <circle class="st1" cx="80" cy="80" r="70.6"/>
  </g>
  <g>
    <g>
      <path d="M32.3,123.4h0c-8.5-8-12-15.3-15.5-26.5C2.2,50.3,39.6,3,88.6,9.2c24.5,3.1,45.5,21,53.7,44,8.3,23.2,3.4,49.1-12.6,67.7,4.9,5.7,10.3,11.1,16.6,15.3-4.1,3.8-10.3,7.2-16,7.6-21.6,1.5-30.6-22.8-43.9-35.1-3.1-2.9-6.7-5.5-10.5-7.2,0-.3.2-.5.4-.7,2.7-2.6,7.9-5.3,11.6-6.2,9.2-2.3,17.1,1.6,23.9,7.4,7.5-10,10-23.4,7.3-35.6-4.8-21.2-24.4-35.9-46.4-31.8s-29.8,17.7-32.3,34.5h9.1s9.4-41.4,49.8-22.5l-6.8,19.2c-6.5-4.5-14.7-2.1-15.5,5h14.1l-4.7,14.5-13.8.2s-16.7,48-22.1,65.9c-17.8-3.9-22.2-16.5-18.2-28h0ZM45.8,84.8h-5.1c.9,4.2,1,4.4,2.6,8.4l2.5-8.4Z"/>
      <path d="M103.6,138.8c-16.2,5.6-26.8,5.7-43.6,1.1l7.5-23.5c5.3,2.3,15.1,2.8,20.8,1.4,5,9,15.3,20.7,15.3,21h0Z"/>
    </g>
    <path class="st0" d="M27.1,137.8"/>
    <path class="st0" d="M43.3,93.2"/>
  </g>
</svg>