<?xml version="1.0" encoding="UTF-8"?>
<svg id="Layer_1" xmlns="http://www.w3.org/2000/svg" version="1.1" viewBox="0 0 160 160">
  <!-- Generator: Adobe Illustrator 29.7.1, SVG Export Plug-In . SVG Version: 2.1.1 Build 8)  -->
  <defs>
    <style>
      .st0 {
        fill: none;
        stroke: #000;
        stroke-miterlimit: 10;
        stroke-width: 3px;
      }
    </style>
  </defs>
  <circle class="st0" cx="80" cy="80" r="70.6"/>
  <g>
    <path d="M143.7,33.9c.2,7.6.7,17-4.7,22.3-3.5,3.4-8,3.8-12.4,4-6.6.3-6.5-.4-13.1-.2l.3,8.8h29.4c.2,9.3-1.1,19.3-10.1,22.2s-12.2,1.1-19.2,1.8l-4.1,29.1-9.9-12.7c11.9-22.2,6.6-62.2-21.9-75.3,3.8-.1,65.9,0,65.9,0Z"/>
    <path d="M106.4,123.9c-8.3,1.8-17.2,1.9-25-2.5-24.6,14.1-58,.1-64.3-31.5-7.2-36.5,23.7-64.1,54.2-54.9,28.3,8.6,37.7,47.8,23.9,74.9l11.1,14ZM54.9,83.9c6.2.5,12.2,1.6,18,3.8,2.1.8,4.1,1.9,6.2,2.8,6-11.1,2.2-24.6-8.5-31-13.7-8.2-32.6.3-33.6,16.7-1,16.2,15,27.6,30.1,23.3l-12.2-15.6Z"/>
  </g>
</svg>